HIERARCHY
ROOT hips
{
  OFFSET -0.00735851563513279 12.18665635585785 0.12248523347079754
  CHANNELS 6 Xposition Yposition Zposition Yrotation Xrotation Zrotation
  JOINT spine
  {
    OFFSET 1.0244548320770264e-7 0.5955291986465454 0
    CHANNELS 3 Yrotation Xrotation Zrotation
    JOINT chest
    {
      OFFSET 0 1.2719063864449713 0
      CHANNELS 3 Yrotation Xrotation Zrotation
      JOINT upperChest
      {
        OFFSET 0 1.490802666915459 0
        CHANNELS 3 Yrotation Xrotation Zrotation
        JOINT neck
        {
          OFFSET 0 1.3131953345263365 0
          CHANNELS 3 Yrotation Xrotation Zrotation
          JOINT head
          {
            OFFSET 0 0.8653679716847534 0
            CHANNELS 3 Yrotation Xrotation Zrotation
            JOINT leftEye
            {
              OFFSET 0.20629723300226033 0.6721053123474121 0.3036841657012701
              CHANNELS 3 Yrotation Xrotation Zrotation
              End Site
              {
                OFFSET 0.20629723300226033 0.6721053123474121 0.3036841657012701
              }
            }
            JOINT rightEye
            {
              OFFSET -0.20629652100615203 0.6721066236495972 0.30368443205952644
              CHANNELS 3 Yrotation Xrotation Zrotation
              End Site
              {
                OFFSET -0.20629652100615203 0.6721066236495972 0.30368443205952644
              }
            }
          }
        }
        JOINT leftShoulder
        {
          OFFSET 0.24624172446783632 0.959903359413147 0
          CHANNELS 3 Yrotation Xrotation Zrotation
          JOINT leftUpperArm
          {
            OFFSET 0.9650355761446514 0 0
            CHANNELS 3 Yrotation Xrotation Zrotation
            JOINT leftLowerArm
            {
              OFFSET 2.4419134471639827 0 0
              CHANNELS 3 Yrotation Xrotation Zrotation
              JOINT leftHand
              {
                OFFSET 2.3874557408809456 0 0
                CHANNELS 3 Yrotation Xrotation Zrotation
                JOINT leftIndexProximal
                {
                  OFFSET 0.7029628753662109 0.06118142604827881 0.23586585000157356
                  CHANNELS 3 Yrotation Xrotation Zrotation
                  JOINT leftIndexIntermediate
                  {
                    OFFSET 0.36102771759033203 -0.001475214958190918 0.056637559086084366
                    CHANNELS 3 Yrotation Xrotation Zrotation
                    JOINT leftIndexDistal
                    {
                      OFFSET 0.22344785928726196 -0.007408857345581055 0.02531452476978302
                      CHANNELS 3 Yrotation Xrotation Zrotation
                      End Site
                      {
                        OFFSET 0.22344785928726196 -0.007408857345581055 0.02531452476978302
                      }
                    }
                  }
                }
                JOINT leftLittleProximal
                {
                  OFFSET 0.6958752870559692 0.034375786781311035 -0.29472956992685795
                  CHANNELS 3 Yrotation Xrotation Zrotation
                  JOINT leftLittleIntermediate
                  {
                    OFFSET 0.34538060426712036 -0.0030041933059692383 0.00024324655532836914
                    CHANNELS 3 Yrotation Xrotation Zrotation
                    JOINT leftLittleDistal
                    {
                      OFFSET 0.19865047931671143 0.00746917724609375 -0.010377676226198673
                      CHANNELS 3 Yrotation Xrotation Zrotation
                      End Site
                      {
                        OFFSET 0.19865047931671143 0.00746917724609375 -0.010377676226198673
                      }
                    }
                  }
                }
                JOINT leftMiddleProximal
                {
                  OFFSET 0.7272291779518127 0.09209799766540527 0.05257739871740341
                  CHANNELS 3 Yrotation Xrotation Zrotation
                  JOINT leftMiddleIntermediate
                  {
                    OFFSET 0.40590834617614746 -0.014838695526123047 0.026817932724952698
                    CHANNELS 3 Yrotation Xrotation Zrotation
                    JOINT leftMiddleDistal
                    {
                      OFFSET 0.2495119571685791 -0.026458144187927246 0.010310646146535873
                      CHANNELS 3 Yrotation Xrotation Zrotation
                      End Site
                      {
                        OFFSET 0.2495119571685791 -0.026458144187927246 0.010310646146535873
                      }
                    }
                  }
                }
                JOINT leftRingProximal
                {
                  OFFSET 0.7334893345832825 0.09136629104614258 -0.1205735495314002
                  CHANNELS 3 Yrotation Xrotation Zrotation
                  JOINT leftRingIntermediate
                  {
                    OFFSET 0.3775520920753479 -0.005917906761169434 0.001896639820188284
                    CHANNELS 3 Yrotation Xrotation Zrotation
                    JOINT leftRingDistal
                    {
                      OFFSET 0.2177620530128479 0.007703900337219238 0.0027355607599020004
                      CHANNELS 3 Yrotation Xrotation Zrotation
                      End Site
                      {
                        OFFSET 0.2177620530128479 0.007703900337219238 0.0027355607599020004
                      }
                    }
                  }
                }
                JOINT leftThumbProximal
                {
                  OFFSET 0.02235114574432373 -0.07603192329406738 0.1950724683701992
                  CHANNELS 3 Yrotation Xrotation Zrotation
                  JOINT leftThumbIntermediate
                  {
                    OFFSET 0.3551589846611023 -0.02970755100250244 0.36741212010383606
                    CHANNELS 3 Yrotation Xrotation Zrotation
                    JOINT leftThumbDistal
                    {
                      OFFSET 0.23456048965454102 -0.016631245613098145 0.2093813568353653
                      CHANNELS 3 Yrotation Xrotation Zrotation
                      End Site
                      {
                        OFFSET 0.23456048965454102 -0.016631245613098145 0.2093813568353653
                      }
                    }
                  }
                }
              }
            }
          }
        }
        JOINT rightShoulder
        {
          OFFSET -0.24624088185373694 0.9600239992141724 0
          CHANNELS 3 Yrotation Xrotation Zrotation
          JOINT rightUpperArm
          {
            OFFSET -0.9650300767908009 0 0
            CHANNELS 3 Yrotation Xrotation Zrotation
            JOINT rightLowerArm
            {
              OFFSET -2.4420125187833426 0 0
              CHANNELS 3 Yrotation Xrotation Zrotation
              JOINT rightHand
              {
                OFFSET -2.3874255620910265 0 0
                CHANNELS 3 Yrotation Xrotation Zrotation
                JOINT rightIndexProximal
                {
                  OFFSET -0.7029609084129333 0.06117355823516846 0.23587234504520893
                  CHANNELS 3 Yrotation Xrotation Zrotation
                  JOINT rightIndexIntermediate
                  {
                    OFFSET -0.3610270619392395 -0.0014804601669311523 0.05664427950978279
                    CHANNELS 3 Yrotation Xrotation Zrotation
                    JOINT rightIndexDistal
                    {
                      OFFSET -0.2234485149383545 -0.0074127912521362305 0.025317884981632233
                      CHANNELS 3 Yrotation Xrotation Zrotation
                      End Site
                      {
                        OFFSET -0.2234485149383545 -0.0074127912521362305 0.025317884981632233
                      }
                    }
                  }
                }
                JOINT rightLittleProximal
                {
                  OFFSET -0.6958779096603394 0.034366607666015625 -0.29472311586141586
                  CHANNELS 3 Yrotation Xrotation Zrotation
                  JOINT rightLittleIntermediate
                  {
                    OFFSET -0.3453786373138428 -0.003008127212524414 0.00025422871112823486
                    CHANNELS 3 Yrotation Xrotation Zrotation
                    JOINT rightLittleDistal
                    {
                      OFFSET -0.19865179061889648 0.00746917724609375 -0.010371447540819645
                      CHANNELS 3 Yrotation Xrotation Zrotation
                      End Site
                      {
                        OFFSET -0.19865179061889648 0.00746917724609375 -0.010371447540819645
                      }
                    }
                  }
                }
                JOINT rightMiddleProximal
                {
                  OFFSET -0.7272304892539978 0.09209012985229492 0.05258418060839176
                  CHANNELS 3 Yrotation Xrotation Zrotation
                  JOINT rightMiddleIntermediate
                  {
                    OFFSET -0.4059063792228699 -0.014843940734863281 0.026821313425898552
                    CHANNELS 3 Yrotation Xrotation Zrotation
                    JOINT rightMiddleDistal
                    {
                      OFFSET -0.24951326847076416 -0.026460766792297363 0.010313207283616066
                      CHANNELS 3 Yrotation Xrotation Zrotation
                      End Site
                      {
                        OFFSET -0.24951326847076416 -0.026460766792297363 0.010313207283616066
                      }
                    }
                  }
                }
                JOINT rightRingProximal
                {
                  OFFSET -0.7334906458854675 0.09135580062866211 -0.12056719791144133
                  CHANNELS 3 Yrotation Xrotation Zrotation
                  JOINT rightRingIntermediate
                  {
                    OFFSET -0.37755340337753296 -0.005923151969909668 0.0019026175141334534
                    CHANNELS 3 Yrotation Xrotation Zrotation
                    JOINT rightRingDistal
                    {
                      OFFSET -0.21775943040847778 0.007701277732849121 0.0027383523993194103
                      CHANNELS 3 Yrotation Xrotation Zrotation
                      End Site
                      {
                        OFFSET -0.21775943040847778 0.007701277732849121 0.0027383523993194103
                      }
                    }
                  }
                }
                JOINT rightThumbProximal
                {
                  OFFSET -0.022347867488861084 -0.07603061199188232 0.19507363624870777
                  CHANNELS 3 Yrotation Xrotation Zrotation
                  JOINT rightThumbIntermediate
                  {
                    OFFSET -0.3550455570220947 -0.029461026191711426 0.36754218488931656
                    CHANNELS 3 Yrotation Xrotation Zrotation
                    JOINT rightThumbDistal
                    {
                      OFFSET -0.23451131582260132 -0.016489624977111816 0.20944765955209732
                      CHANNELS 3 Yrotation Xrotation Zrotation
                      End Site
                      {
                        OFFSET -0.23451131582260132 -0.016489624977111816 0.20944765955209732
                      }
                    }
                  }
                }
              }
            }
          }
        }
      }
    }
  }
  JOINT leftUpperLeg
  {
    OFFSET 0.8483456987887621 -0.42556869983673096 0
    CHANNELS 3 Yrotation Xrotation Zrotation
    JOINT leftLowerLeg
    {
      OFFSET 0 -4.6702112872869534 0
      CHANNELS 3 Yrotation Xrotation Zrotation
      JOINT leftFoot
      {
        OFFSET -0.13096565008163452 -5.202569782733917 -0.2985280640423298
        CHANNELS 3 Yrotation Xrotation Zrotation
        JOINT leftToes
        {
          OFFSET 0.01423943042755127 -0.7568342834711075 1.213271364569664
          CHANNELS 3 Yrotation Xrotation Zrotation
          End Site
          {
            OFFSET 0.01423943042755127 -0.7568342834711075 1.213271364569664
          }
        }
      }
    }
  }
  JOINT rightUpperLeg
  {
    OFFSET -0.8483468051999807 -0.42556607723236084 0
    CHANNELS 3 Yrotation Xrotation Zrotation
    JOINT rightLowerLeg
    {
      OFFSET 0 -4.670219469177788 0
      CHANNELS 3 Yrotation Xrotation Zrotation
      JOINT rightFoot
      {
        OFFSET 0.13097601756453514 -5.202573716640472 -0.29853164963424206
        CHANNELS 3 Yrotation Xrotation Zrotation
        JOINT rightToes
        {
          OFFSET -0.014232628047466278 -0.7568355947732925 1.213272675871849
          CHANNELS 3 Yrotation Xrotation Zrotation
          End Site
          {
            OFFSET -0.014232628047466278 -0.7568355947732925 1.213272675871849
          }
        }
      }
    }
  }
}
MOTION
Frames: 7
Frame Time: 0.03333333333333333
-0.283149 -0.034518 -0.322759 -0.16451 7.639146 -9.19999 2.934663 -11.552194 3.230853 1.283349 -11.280207 -3.619439 0 0 0 -18.691528 25.127524 -10.787067 -23.778723 8.055076 19.280065 0 0 0 0 0 0 -8.805303 2.600311 -13.245125 4.268788 11.971135 -76.311112 -34.043584 4.206536 13.772974 -5.772804 22.779781 -8.67661 -3.636292 -2.244307 -19.133199 -7.100467 3.62086 1.822583 0 0 0 37.981329 3.85712 -18.21386 -3.981505 -0.312001 -2.714025 0 0 0 2.929467 -1.231741 -10.13273 -1.246458 0.377728 3.981735 0 0 0 18.723955 0.463054 -17.775594 -4.013708 0.99524 -3.126586 0 0 0 18.269087 2.108643 -5.565532 3.717059 8.635663 -20.580557 0 0 0 8.805303 2.600311 13.245125 -12.605046 11.51045 77.579712 40.631554 6.064976 -16.989009 10.150454 32.823622 14.132639 3.635273 -2.24402 19.132416 7.100747 3.620751 -1.822804 0 0 0 -37.983061 3.857696 18.213087 3.981514 -0.312002 2.714676 0 0 0 -2.929954 -1.23167 10.131993 1.246384 0.377706 -3.981553 0 0 0 -18.724815 0.463336 17.774795 4.013885 0.995202 3.126699 0 0 0 -18.287739 2.122715 5.592006 -3.712166 8.636711 20.577783 0 0 0 -49.896448 -4.586299 3.464912 0.775148 5.532524 -0.619318 59.039132 -35.796466 -2.684125 0 0 0 24.588311 -6.392178 1.000697 0.308564 -8.744378 0.987418 -25.771529 -9.312991 -3.587034 0 0 0
-0.277671 -0.036171 -0.321713 -0.206933 7.866263 -9.000831 1.57904 -11.859838 3.323907 0.728412 -11.557302 -2.572065 0 0 0 -18.30971 24.275293 -11.596879 -22.706714 8.778534 18.298835 0 0 0 0 0 0 -8.805303 2.600311 -13.245125 4.963938 12.500658 -77.580546 -34.544989 4.335069 14.022978 -5.471504 21.920902 -8.278847 -3.636292 -2.244307 -19.133199 -7.100467 3.62086 1.822583 0 0 0 37.981329 3.85712 -18.21386 -3.981505 -0.312001 -2.714025 0 0 0 2.929467 -1.231741 -10.13273 -1.246458 0.377728 3.981735 0 0 0 18.723955 0.463054 -17.775594 -4.013708 0.99524 -3.126586 0 0 0 18.269087 2.108643 -5.565532 3.717059 8.635663 -20.580557 0 0 0 8.805303 2.600311 13.245125 -10.733334 12.02993 76.577099 40.114137 5.905888 -16.742101 9.941364 32.419946 13.881463 3.635273 -2.24402 19.132416 7.100747 3.620751 -1.822804 0 0 0 -37.983061 3.857696 18.213087 3.981514 -0.312002 2.714676 0 0 0 -2.929954 -1.23167 10.131993 1.246384 0.377706 -3.981553 0 0 0 -18.724815 0.463336 17.774795 4.013885 0.995202 3.126699 0 0 0 -18.287739 2.122715 5.592006 -3.712166 8.636711 20.577783 0 0 0 -50.120017 -4.911363 3.407294 0.790923 5.601831 -0.610563 59.211688 -36.092412 -2.719489 0 0 0 25.0288 -6.43097 0.725352 0.310558 -8.829807 0.98371 -26.154642 -9.431085 -3.599531 0 0 0
-0.274274 -0.039451 -0.315618 -0.227179 8.05821 -8.840712 0.762609 -12.182271 3.309066 0.387502 -11.662635 -1.918928 0 0 0 -18.092216 23.823713 -12.114919 -22.040801 9.159477 17.768562 0 0 0 0 0 0 -8.805303 2.600311 -13.245125 5.449805 12.811541 -78.391927 -34.8448 4.412056 14.172436 -5.316768 21.481429 -8.074803 -3.636292 -2.244307 -19.133199 -7.100467 3.62086 1.822583 0 0 0 37.981329 3.85712 -18.21386 -3.981505 -0.312001 -2.714025 0 0 0 2.929467 -1.231741 -10.13273 -1.246458 0.377728 3.981735 0 0 0 18.723955 0.463054 -17.775594 -4.013708 0.99524 -3.126586 0 0 0 18.269087 2.108643 -5.565532 3.717059 8.635663 -20.580557 0 0 0 8.805303 2.600311 13.245125 -9.766867 12.32264 75.960708 39.770917 5.800531 -16.578248 9.847643 32.239561 13.768944 3.635273 -2.24402 19.132416 7.100747 3.620751 -1.822804 0 0 0 -37.983061 3.857696 18.213087 3.981514 -0.312002 2.714676 0 0 0 -2.929954 -1.23167 10.131993 1.246384 0.377706 -3.981553 0 0 0 -18.724815 0.463336 17.774795 4.013885 0.995202 3.126699 0 0 0 -18.287739 2.122715 5.592006 -3.712166 8.636711 20.577783 0 0 0 -50.30097 -5.175655 3.376966 0.803979 5.656042 -0.603392 59.337431 -36.325815 -2.746384 0 0 0 25.373957 -6.471709 0.504918 0.312659 -8.892629 0.980898 -26.456405 -9.56402 -3.611457 0 0 0
-0.274062 -0.039464 -0.314456 -0.219473 8.17301 -8.755715 0.491368 -12.426436 3.239957 0.267053 -11.638374 -1.674206 0 0 0 -18.047273 23.765813 -12.344426 -21.797807 9.197719 17.685215 0 0 0 0 0 0 -8.805303 2.600311 -13.245125 5.691981 12.902839 -78.724386 -34.937696 4.436496 14.218594 -5.296583 21.426448 -8.048522 -3.636292 -2.244307 -19.133199 -7.100467 3.62086 1.822583 0 0 0 37.981329 3.85712 -18.21386 -3.981505 -0.312001 -2.714025 0 0 0 2.929467 -1.231741 -10.13273 -1.246458 0.377728 3.981735 0 0 0 18.723955 0.463054 -17.775594 -4.013708 0.99524 -3.126586 0 0 0 18.269087 2.108643 -5.565532 3.717059 8.635663 -20.580557 0 0 0 8.805303 2.600311 13.245125 -9.712146 12.362465 75.714746 39.591732 5.745848 -16.49256 9.877096 32.297225 13.804417 3.635273 -2.24402 19.132416 7.100747 3.620751 -1.822804 0 0 0 -37.983061 3.857696 18.213087 3.981514 -0.312002 2.714676 0 0 0 -2.929954 -1.23167 10.131993 1.246384 0.377706 -3.981553 0 0 0 -18.724815 0.463336 17.774795 4.013885 0.995202 3.126699 0 0 0 -18.287739 2.122715 5.592006 -3.712166 8.636711 20.577783 0 0 0 -50.394894 -5.317811 3.38946 0.810516 5.680587 -0.599759 59.386301 -36.420914 -2.75552 0 0 0 25.569036 -6.507239 0.393197 0.314342 -8.92267 0.979216 -26.629472 -9.683084 -3.620762 0 0 0
-0.276212 -0.039128 -0.313397 -0.193759 8.212411 -8.750134 0.445382 -12.541719 3.213227 0.242629 -11.596153 -1.612404 0 0 0 -18.076801 23.847324 -12.442471 -21.756875 9.11229 17.752832 0 0 0 0 0 0 -8.805303 2.600311 -13.245125 5.76086 12.906506 -78.826091 -34.946241 4.439879 14.22253 -5.309194 21.46392 -8.065389 -3.636292 -2.244307 -19.133199 -7.100467 3.62086 1.822583 0 0 0 37.981329 3.85712 -18.21386 -3.981505 -0.312001 -2.714025 0 0 0 2.929467 -1.231741 -10.13273 -1.246458 0.377728 3.981735 0 0 0 18.723955 0.463054 -17.775594 -4.013708 0.99524 -3.126586 0 0 0 18.269087 2.108643 -5.565532 3.717059 8.635663 -20.580557 0 0 0 8.805303 2.600311 13.245125 -9.99081 12.271654 75.611966 39.491224 5.715448 -16.444367 9.95895 32.455689 13.902797 3.635273 -2.24402 19.132416 7.100747 3.620751 -1.822804 0 0 0 -37.983061 3.857696 18.213087 3.981514 -0.312002 2.714676 0 0 0 -2.929954 -1.23167 10.131993 1.246384 0.377706 -3.981553 0 0 0 -18.724815 0.463336 17.774795 4.013885 0.995202 3.126699 0 0 0 -18.287739 2.122715 5.592006 -3.712166 8.636711 20.577783 0 0 0 -50.402418 -5.336 3.446245 0.810002 5.677747 -0.599789 59.365039 -36.384631 -2.748039 0 0 0 25.607701 -6.540659 0.392049 0.31537 -8.924938 0.978341 -26.670066 -9.742303 -3.624664 0 0 0
-0.284523 -0.038986 -0.314753 -0.165263 8.218037 -8.786725 0.407294 -12.589018 3.23252 0.226071 -11.561692 -1.574835 0 0 0 -18.102013 23.899229 -12.493965 -21.760548 9.070465 17.754835 0 0 0 0 0 0 -8.805303 2.600311 -13.245125 5.751462 12.90323 -78.870918 -34.950987 4.441934 14.224653 -5.307666 21.459732 -8.063397 -3.636292 -2.244307 -19.133199 -7.100467 3.62086 1.822583 0 0 0 37.981329 3.85712 -18.21386 -3.981505 -0.312001 -2.714025 0 0 0 2.929467 -1.231741 -10.13273 -1.246458 0.377728 3.981735 0 0 0 18.723955 0.463054 -17.775594 -4.013708 0.99524 -3.126586 0 0 0 18.269087 2.108643 -5.565532 3.717059 8.635663 -20.580557 0 0 0 8.805303 2.600311 13.245125 -10.145663 12.172396 75.538766 39.451528 5.703529 -16.425295 10.01374 32.561476 13.968618 3.635273 -2.24402 19.132416 7.100747 3.620751 -1.822804 0 0 0 -37.983061 3.857696 18.213087 3.981514 -0.312002 2.714676 0 0 0 -2.929954 -1.23167 10.131993 1.246384 0.377706 -3.981553 0 0 0 -18.724815 0.463336 17.774795 4.013885 0.995202 3.126699 0 0 0 -18.287739 2.122715 5.592006 -3.712166 8.636711 20.577783 0 0 0 -50.368085 -5.295606 3.526197 0.806846 5.666675 -0.601189 59.307561 -36.314759 -2.736421 0 0 0 25.53428 -6.577697 0.443601 0.315732 -8.912489 0.977883 -26.618217 -9.730999 -3.623251 0 0 0
-0.28896 -0.038986 -0.318098 -0.148971 8.218645 -8.822196 0.342521 -12.631402 3.257302 0.201811 -11.520771 -1.53553 0 0 0 -18.105241 23.904074 -12.517365 -21.764143 9.110608 17.661449 0 0 0 0 0 0 -8.805303 2.600311 -13.245125 5.739097 12.906007 -78.901372 -34.958218 4.44344 14.228325 -5.306099 21.455353 -8.061342 -3.636292 -2.244307 -19.133199 -7.100467 3.62086 1.822583 0 0 0 37.981329 3.85712 -18.21386 -3.981505 -0.312001 -2.714025 0 0 0 2.929467 -1.231741 -10.13273 -1.246458 0.377728 3.981735 0 0 0 18.723955 0.463054 -17.775594 -4.013708 0.99524 -3.126586 0 0 0 18.269087 2.108643 -5.565532 3.717059 8.635663 -20.580557 0 0 0 8.805303 2.600311 13.245125 -10.048551 12.123124 75.506581 39.482053 5.712775 -16.439926 9.99542 32.526008 13.946599 3.635273 -2.24402 19.132416 7.100747 3.620751 -1.822804 0 0 0 -37.983061 3.857696 18.213087 3.981514 -0.312002 2.714676 0 0 0 -2.929954 -1.23167 10.131993 1.246384 0.377706 -3.981553 0 0 0 -18.724815 0.463336 17.774795 4.013885 0.995202 3.126699 0 0 0 -18.287739 2.122715 5.592006 -3.712166 8.636711 20.577783 0 0 0 -50.321542 -5.259343 3.598052 0.804693 5.661121 -0.60214 59.243034 -36.275204 -2.729177 0 0 0 25.431379 -6.612639 0.4905 0.314779 -8.897982 0.977599 -26.542175 -9.678929 -3.620141 0 0 0
